<?xml version="1.0" encoding="UTF-8" standalone="no"?>
<svg
   width="864"
   height="320"
   viewBox="0 0 864 320"
   fill="none"
   version="1.1"
   id="svg81"
   xmlns:xlink="http://www.w3.org/1999/xlink"
   xmlns="http://www.w3.org/2000/svg"
   xmlns:svg="http://www.w3.org/2000/svg">
  <rect
     width="864"
     height="320"
     fill="none"
     id="rect2"
     x="0"
     y="0" />
  <defs
     id="defs49">
    <style
       id="style4"><![CDATA[
      /* fonts omitted for outlining */
    ]]></style>
    <filter
       id="barGlow"
       x="-0.17142857"
       y="-0.19047619"
       width="1.3428571"
       height="1.3809524">
      <feGaussianBlur
         stdDeviation="10"
         result="blur"
         id="feGaussianBlur6" />
      <feMerge
         id="feMerge12">
        <feMergeNode
           in="blur"
           id="feMergeNode8" />
        <feMergeNode
           in="SourceGraphic"
           id="feMergeNode10" />
      </feMerge>
    </filter>
    <linearGradient
       id="bar1"
       x1="0"
       y1="65"
       x2="0"
       y2="175"
       gradientUnits="userSpaceOnUse">
      <stop
         offset="0"
         stop-color="#6CC0FF"
         id="stop15" />
      <stop
         offset="1"
         stop-color="#3F97F7"
         id="stop17" />
    </linearGradient>
    <linearGradient
       id="bar2"
       x1="0"
       y1="49"
       x2="0"
       y2="175"
       gradientUnits="userSpaceOnUse">
      <stop
         offset="0"
         stop-color="#8FA6FF"
         id="stop20" />
      <stop
         offset="1"
         stop-color="#5C7BFF"
         id="stop22" />
    </linearGradient>
    <linearGradient
       id="bar3"
       x1="0"
       y1="65"
       x2="0"
       y2="175"
       gradientUnits="userSpaceOnUse">
      <stop
         offset="0"
         stop-color="#B090FF"
         id="stop25" />
      <stop
         offset="1"
         stop-color="#7A56F6"
         id="stop27" />
    </linearGradient>
    <linearGradient
       id="bar4"
       x1="0"
       y1="79"
       x2="0"
       y2="175"
       gradientUnits="userSpaceOnUse">
      <stop
         offset="0"
         stop-color="#C9B4FF"
         id="stop30" />
      <stop
         offset="1"
         stop-color="#9C82FF"
         id="stop32" />
    </linearGradient>
    <filter
       id="textGlow"
       x="-0.029646113"
       y="-0.10362694"
       width="1.0592922"
       height="1.2072539">
      <feGaussianBlur
         stdDeviation="4"
         result="blur"
         id="feGaussianBlur35" />
      <feMerge
         id="feMerge41">
        <feMergeNode
           in="blur"
           id="feMergeNode37" />
        <feMergeNode
           in="SourceGraphic"
           id="feMergeNode39" />
      </feMerge>
    </filter>
    <linearGradient
       id="glowText"
       x1="0"
       y1="0"
       x2="1"
       y2="0"
       gradientUnits="objectBoundingBox">
      <stop
         offset="0"
         stop-color="#6CC0FF"
         id="stop44" />
      <stop
         offset="1"
         stop-color="#4AA3FF"
         id="stop46" />
    </linearGradient>
    <linearGradient
       xlink:href="#glowText"
       id="linearGradient55"
       gradientUnits="userSpaceOnUse"
       x1="518.55342"
       y1="99.953646"
       x2="611.37325"
       y2="99.953646"
       gradientTransform="scale(1.0019411,0.99806264)" />
    <linearGradient
       xlink:href="#glowText"
       id="linearGradient57"
       gradientUnits="userSpaceOnUse"
       x1="1065.3118"
       y1="59.201599"
       x2="1115.9569"
       y2="59.201599"
       gradientTransform="scale(0.57814062,1.729683)" />
    <linearGradient
       xlink:href="#glowText"
       id="linearGradient59"
       gradientUnits="userSpaceOnUse"
       x1="645.04367"
       y1="123.59443"
       x2="717.39163"
       y2="123.59443"
       gradientTransform="scale(1.0184116,0.98192127)" />
    <linearGradient
       xlink:href="#glowText"
       id="linearGradient61"
       gradientUnits="userSpaceOnUse"
       x1="571.80943"
       y1="158.90277"
       x2="656.85887"
       y2="158.90277"
       gradientTransform="scale(1.283959,0.77884107)" />
    <linearGradient
       xlink:href="#glowText"
       id="linearGradient63"
       gradientUnits="userSpaceOnUse"
       x1="291.18907"
       y1="157.89739"
       x2="487.05469"
       y2="157.89739"
       gradientTransform="scale(1.751302,0.57100375)" />
  </defs>
  <!-- Icon C (LED bars + keys) -->
  <g
     transform="translate(40,40)"
     id="g75">
    <path
       id="rect51"
       style="fill:#0b0f14;stroke:#4aa3ff;stroke-width:12"
       d="m 54,0 h 132 c 29.916,0 54,24.084 54,54 v 132 c 0,29.916 -24.084,54 -54,54 H 54 C 24.084,240 0,215.916 0,186 V 54 C 0,24.084 24.084,0 54,0 Z" />
    <!-- LED bars -->
    <g
       filter="url(#barGlow)"
       id="g61">
      <path
         id="rect53"
         style="fill:url(#bar1)"
         d="m 60,65 h 4 c 4.432,0 8,3.568 8,8 v 94 c 0,4.432 -3.568,8 -8,8 h -4 c -4.432,0 -8,-3.568 -8,-8 V 73 c 0,-4.432 3.568,-8 8,-8 z" />
      <path
         id="rect55"
         style="fill:url(#bar2)"
         d="m 100,49 h 4 c 4.432,0 8,3.568 8,8 v 110 c 0,4.432 -3.568,8 -8,8 h -4 c -4.432,0 -8,-3.568 -8,-8 V 57 c 0,-4.432 3.568,-8 8,-8 z" />
      <path
         id="rect57"
         style="fill:url(#bar3)"
         d="m 140,65 h 4 c 4.432,0 8,3.568 8,8 v 94 c 0,4.432 -3.568,8 -8,8 h -4 c -4.432,0 -8,-3.568 -8,-8 V 73 c 0,-4.432 3.568,-8 8,-8 z" />
      <path
         id="rect59"
         style="fill:url(#bar4)"
         d="m 180,79 h 4 c 4.432,0 8,3.568 8,8 v 80 c 0,4.432 -3.568,8 -8,8 h -4 c -4.432,0 -8,-3.568 -8,-8 V 87 c 0,-4.432 3.568,-8 8,-8 z" />
    </g>
    <!-- Keyboard (3 white + 2 black keys) -->
    <g
       transform="translate(36,127)"
       id="g73">
      <path
         id="rect63"
         style="fill:#e6eaf0"
         d="m 14,0 h 140 c 7.756,0 14,6.244 14,14 v 36 c 0,7.756 -6.244,14 -14,14 H 14 C 6.244,64 0,57.756 0,50 V 14 C 0,6.244 6.244,0 14,0 Z" />
      <path
         id="rect65"
         style="fill:#c9d1db"
         d="m 56,0 h 2 v 64 h -2 z" />
      <path
         id="rect67"
         style="fill:#c9d1db"
         d="m 112,0 h 2 v 64 h -2 z" />
      <path
         id="rect69"
         style="fill:#0b0f14"
         d="m 46,0 h 16 c 3.324,0 6,2.676 6,6 v 28 c 0,3.324 -2.676,6 -6,6 H 46 c -3.324,0 -6,-2.676 -6,-6 V 6 c 0,-3.324 2.676,-6 6,-6 z" />
      <path
         id="rect71"
         style="fill:#0b0f14"
         d="m 102,0 h 16 c 3.324,0 6,2.676 6,6 v 28 c 0,3.324 -2.676,6 -6,6 h -16 c -3.324,0 -6,-2.676 -6,-6 V 6 c 0,-3.324 2.676,-6 6,-6 z" />
    </g>
  </g>
  <g
     aria-label="Key"
     id="text77"
     style="font-weight:700;font-size:120px;font-family:'Space Grotesk', Inter, ui-sans-serif;letter-spacing:-0.5;fill:#e6eaf0">
    <path
       d="m 315.92,190 v -84 h 15.84 v 33.36 h 2.16 L 361.16,106 h 20.28 l -35.04,41.4 36.24,42.6 h -20.88 l -27.84,-34.08 h -2.16 V 190 Z"
       id="path95" />
    <path
       d="m 416.45994,191.68 q -8.88,0 -15.72,-3.72 -6.72,-3.84 -10.56,-10.68 -3.72,-6.96 -3.72,-16.32 v -1.44 q 0,-9.36 3.72,-16.2 3.72,-6.96 10.44,-10.68 6.72,-3.84 15.6,-3.84 8.76,0 15.24,3.96 6.48,3.84 10.08,10.8 3.6,6.84 3.6,15.96 v 5.16 h -43.32 q 0.24,6.12 4.56,9.96 4.32,3.84 10.56,3.84 6.36,0 9.36,-2.76 3,-2.76 4.56,-6.12 l 12.36,6.48 q -1.68,3.12 -4.92,6.84 -3.12,3.6 -8.4,6.24 -5.28,2.52 -13.44,2.52 z m -14.52,-38.28 h 27.84 q -0.48,-5.16 -4.2,-8.28 -3.6,-3.12 -9.48,-3.12 -6.12,0 -9.72,3.12 -3.6,3.12 -4.44,8.28 z"
       id="path97" />
    <path
       d="m 464.5599,214 v -13.2 h 32.4 q 3.36,0 3.36,-3.6 v -15 h -2.16 q -1.44,3 -5.4,5.88 -3.96,2.88 -12,2.88 -6.96,0 -12.24,-3.12 -5.16,-3.24 -8.04,-8.88 -2.88,-5.64 -2.88,-12.96 v -35.52 h 15.12 v 34.32 q 0,6.72 3.24,10.08 3.36,3.36 9.48,3.36 6.96,0 10.8,-4.56 3.84,-4.68 3.84,-12.96 v -30.24 h 15.12 v 70.08 q 0,6.12 -3.6,9.72 -3.6,3.72 -9.6,3.72 z"
       id="path99" />
  </g>
  <g
     aria-label="Glow"
     id="text79"
     style="font-weight:700;font-size:120px;font-family:Sora, Inter, ui-sans-serif;letter-spacing:-0.5;fill:url(#linearGradient63);filter:url(#textGlow)">
    <path
       d="m 566.24,192.4 c 17.76,0 31.8,-7.08 39.12,-19.68 v -13.68 h 7.2 v -15.6 h -48.72 v 15.6 h 21.12 v 4.56 c -3.6,5.16 -10.32,8.4 -18.72,8.4 -15.84,0 -24.12,-11.04 -24.12,-25.92 0,-14.76 7.8,-25.44 22.2,-25.44 11.28,0 19.2,6.12 20.64,14.04 h 22.32 c -2.04,-20.52 -18.84,-34.92 -42.96,-34.92 -30,0 -44.76,23.04 -44.76,44.88 v 2.64 c 0,20.28 13.68,45.12 46.68,45.12 z"
       id="path102"
       style="fill:url(#linearGradient55)" />
    <path
       d="m 623.34002,190 h 21.84 v -87.6 h -29.28 v 15.84 h 7.44 z"
       id="path104"
       style="fill:url(#linearGradient57)" />
    <path
       d="m 693.75995,192.4 c 23.4,0 36.84,-15.36 36.84,-33.84 v -2.88 c 0,-19.32 -14.28,-34.32 -36.84,-34.32 -22.56,0 -36.84,15 -36.84,34.32 v 2.88 c 0,18.48 13.44,33.84 36.84,33.84 z m 0,-18.24 c -9.96,0 -15,-7.08 -15,-17.04 0,-10.2 5.4,-17.52 15,-17.52 9.6,0 15,7.32 15,17.52 0,9.96 -5.04,17.04 -15,17.04 z"
       id="path106"
       style="fill:url(#linearGradient59)" />
    <path
       d="m 751.57986,190 h 29.64 l 7.92,-39.48 8.64,39.48 h 29.76 l 15.84,-66.24 h -19.92 l -10.56,48 h -2.4 l -9.6,-45.84 h -22.8 l -8.4,45.84 h -2.52 l -11.64,-48 h -21.36 z"
       id="path108"
       style="fill:url(#linearGradient61)" />
  </g>
</svg>
